<?xml version="1.0" encoding="UTF-8"?>
<svg xmlns="http://www.w3.org/2000/svg" xmlns:xlink="http://www.w3.org/1999/xlink" width="375pt" height="374.999991pt" viewBox="0 0 375 374.999991" version="1.2">
<defs>
<clipPath id="clip1">
  <path d="M 48.035156 26.679688 L 324 26.679688 L 324 220.929688 L 48.035156 220.929688 Z M 48.035156 26.679688 "/>
</clipPath>
<clipPath id="clip2">
  <path d="M 90.679688 123.925781 L 281.179688 123.925781 L 281.179688 330.925781 L 90.679688 330.925781 Z M 90.679688 123.925781 "/>
</clipPath>
</defs>
<g id="surface1">
<g clip-path="url(#clip1)" clip-rule="nonzero">
<path style=" stroke:none;fill-rule:nonzero;fill:rgb(100%,100%,100%);fill-opacity:1;" d="M 59.160156 87.769531 C 58.796875 88.96875 58.488281 90.179688 58.222656 91.402344 C 57.496094 94.773438 57.179688 98.140625 57.289062 101.410156 C 57.386719 104.785156 57.96875 108.222656 59.011719 111.640625 C 60.933594 117.964844 64.476562 124.160156 69.539062 130.058594 C 73.867188 135.09375 79.035156 139.753906 85.332031 144.277344 C 90.722656 148.132812 96.605469 151.710938 103.3125 155.191406 C 109.3125 158.296875 115.546875 161.128906 122.363281 163.804688 C 124.574219 164.667969 126.992188 165.554688 129.75 166.539062 L 131.707031 167.226562 L 132.472656 169.132812 C 133.894531 172.730469 136.160156 175.957031 139.015625 178.492188 L 169.664062 205.632812 C 174.328125 209.761719 180.183594 211.824219 186.035156 211.824219 C 191.882812 211.824219 197.734375 209.761719 202.402344 205.632812 L 233.054688 178.492188 C 235.910156 175.957031 238.175781 172.730469 239.59375 169.132812 L 240.359375 167.226562 L 242.332031 166.539062 C 245.070312 165.554688 247.492188 164.667969 249.71875 163.804688 C 256.53125 161.128906 262.757812 158.296875 268.765625 155.191406 C 275.460938 151.710938 281.351562 148.132812 286.75 144.277344 C 293.03125 139.753906 298.195312 135.09375 302.527344 130.058594 C 307.589844 124.160156 311.136719 117.964844 313.066406 111.648438 C 314.109375 108.222656 314.679688 104.785156 314.78125 101.421875 C 314.898438 98.140625 314.582031 94.773438 313.855469 91.410156 L 313.855469 91.402344 C 313.578125 90.179688 313.261719 88.96875 312.90625 87.769531 C 312.96875 89.054688 312.949219 90.339844 312.886719 91.613281 C 312.613281 98.179688 310.742188 104.371094 307.453125 109.523438 C 304.496094 114.234375 300.261719 118.496094 294.863281 122.195312 C 286.335938 128.015625 275.324219 132.417969 261.242188 135.625 C 255.46875 136.921875 249.34375 137.964844 243 138.710938 C 239.886719 139.085938 236.796875 139.378906 233.820312 139.597656 L 232.757812 139.65625 C 232.5625 139.65625 232.363281 139.675781 232.148438 139.675781 L 230.730469 139.773438 L 229.507812 139.027344 C 225.648438 136.667969 221.214844 135.425781 216.683594 135.425781 L 155.386719 135.425781 C 150.863281 135.425781 146.429688 136.667969 142.558594 139.027344 L 141.339844 139.773438 L 139.914062 139.675781 C 139.710938 139.675781 139.507812 139.65625 139.304688 139.65625 C 138.953125 139.636719 138.605469 139.617188 138.25 139.597656 C 135.273438 139.378906 132.183594 139.085938 129.070312 138.710938 C 122.730469 137.964844 116.597656 136.921875 110.847656 135.625 C 96.734375 132.417969 85.742188 128.015625 77.214844 122.203125 C 71.8125 118.496094 67.574219 114.234375 64.613281 109.523438 C 61.332031 104.375 59.453125 98.183594 59.175781 91.617188 C 59.117188 90.34375 59.109375 89.058594 59.160156 87.769531 Z M 186.035156 220.929688 C 178.019531 220.929688 170.003906 218.097656 163.613281 212.433594 L 132.964844 185.296875 C 129.574219 182.289062 126.792969 178.570312 124.84375 174.441406 C 122.738281 173.695312 120.824219 172.96875 119.03125 172.28125 C 111.910156 169.46875 105.394531 166.539062 99.109375 163.273438 C 92.003906 159.574219 85.761719 155.78125 80.007812 151.652344 C 73.113281 146.714844 67.425781 141.582031 62.617188 135.976562 C 56.726562 129.113281 52.582031 121.820312 50.289062 114.292969 C 49.011719 110.101562 48.300781 105.863281 48.175781 101.695312 C 48.042969 97.691406 48.425781 93.582031 49.308594 89.484375 C 50.121094 85.71875 51.328125 82.023438 52.902344 78.507812 C 53.308594 77.535156 53.710938 76.667969 54.128906 75.867188 L 55.410156 73.351562 C 55.65625 72.929688 55.894531 72.503906 56.132812 72.082031 C 56.746094 70.996094 57.378906 69.875 58.132812 68.75 C 61.632812 63.25 65.851562 57.933594 71.019531 52.5 L 95.597656 26.6875 L 78.316406 57.839844 C 75.0625 63.707031 72.539062 69.398438 70.820312 74.753906 L 70.78125 74.878906 C 70.480469 75.734375 70.234375 76.664062 69.972656 77.648438 C 69.851562 78.101562 69.734375 78.554688 69.605469 79 L 69.128906 81.230469 C 69 81.773438 68.890625 82.375 68.792969 83.082031 L 68.773438 83.226562 C 68.324219 85.890625 68.160156 88.578125 68.285156 91.203125 L 68.285156 91.234375 C 68.492188 96.203125 69.886719 100.847656 72.316406 104.652344 L 72.332031 104.675781 C 74.628906 108.328125 78.003906 111.699219 82.367188 114.695312 C 89.925781 119.851562 99.902344 123.796875 112.863281 126.753906 C 118.300781 127.972656 124.117188 128.957031 130.144531 129.683594 C 133.109375 130.039062 136.054688 130.316406 138.890625 130.511719 L 139.078125 130.511719 C 144.070312 127.777344 149.679688 126.324219 155.386719 126.324219 L 216.683594 126.324219 C 222.398438 126.324219 228.011719 127.777344 232.992188 130.511719 L 233.171875 130.511719 C 236.007812 130.316406 238.960938 130.039062 241.9375 129.683594 C 247.945312 128.957031 253.773438 127.972656 259.210938 126.753906 C 272.171875 123.796875 282.140625 119.851562 289.703125 114.6875 C 294.058594 111.703125 297.445312 108.332031 299.730469 104.675781 L 299.75 104.652344 C 302.191406 100.847656 303.570312 96.203125 303.789062 91.234375 L 303.789062 91.203125 C 303.90625 88.574219 303.75 85.890625 303.296875 83.226562 L 303.277344 83.082031 C 303.175781 82.375 303.078125 81.773438 302.941406 81.230469 L 302.921875 81.148438 L 302.46875 79 C 302.332031 78.554688 302.210938 78.105469 302.09375 77.652344 C 301.839844 76.664062 301.601562 75.734375 301.285156 74.875 L 301.246094 74.753906 C 299.535156 69.394531 297.011719 63.707031 293.761719 57.839844 L 276.46875 26.683594 L 301.050781 52.5 C 306.230469 57.933594 310.445312 63.25 313.933594 68.75 C 314.679688 69.875 315.332031 70.996094 315.941406 72.085938 C 316.179688 72.507812 316.414062 72.929688 316.652344 73.351562 L 316.789062 73.585938 L 317.929688 75.863281 C 318.363281 76.667969 318.757812 77.535156 319.171875 78.503906 C 320.746094 82.019531 321.949219 85.714844 322.757812 89.492188 C 323.644531 93.582031 324.019531 97.695312 323.898438 101.707031 C 323.761719 105.863281 323.050781 110.101562 321.773438 114.296875 C 319.488281 121.820312 315.351562 129.113281 309.460938 135.976562 C 304.65625 141.582031 298.960938 146.695312 292.066406 151.652344 C 286.316406 155.78125 280.070312 159.574219 272.960938 163.273438 C 266.675781 166.539062 260.15625 169.46875 253.046875 172.257812 C 251.234375 172.96875 249.324219 173.695312 247.234375 174.441406 C 245.285156 178.570312 242.507812 182.289062 239.101562 185.296875 L 208.449219 212.433594 C 202.070312 218.097656 194.050781 220.929688 186.035156 220.929688 "/>
</g>
<path style=" stroke:none;fill-rule:nonzero;fill:rgb(100%,100%,100%);fill-opacity:1;" d="M 135.320312 134.460938 L 236.570312 134.460938 L 236.570312 155.152344 L 135.320312 155.152344 Z M 135.320312 134.460938 "/>
<g clip-path="url(#clip2)" clip-rule="nonzero">
<path style=" stroke:none;fill-rule:evenodd;fill:rgb(100%,100%,100%);fill-opacity:1;" d="M 185.894531 330.929688 L 169.914062 314.859375 L 169.914062 329.523438 L 147.773438 310.105469 L 141.9375 320.953125 L 123.570312 305.554688 L 116.542969 279.511719 L 107.394531 289.085938 L 98.640625 272.414062 L 98.839844 237.867188 L 90.753906 246.035156 L 90.753906 213.097656 L 109.714844 170.183594 L 112.367188 167.503906 L 93.40625 158.800781 L 91.414062 138.980469 L 105.800781 123.917969 L 133.316406 125.324219 L 137.496094 142.128906 L 140.148438 139.453125 L 185.894531 133.828125 L 231.707031 139.453125 L 234.492188 142.332031 L 238.734375 125.324219 L 266.183594 123.917969 L 280.636719 138.980469 L 278.648438 158.800781 L 259.554688 167.570312 L 262.140625 170.183594 L 281.101562 213.097656 L 281.101562 246.035156 L 273.011719 237.867188 L 273.144531 272.414062 L 264.394531 289.085938 L 255.3125 279.511719 L 248.285156 305.554688 L 229.851562 320.953125 L 224.082031 310.105469 L 201.871094 329.523438 L 201.871094 314.859375 L 185.894531 330.929688 "/>
</g>
<path style=" stroke:none;fill-rule:evenodd;fill:rgb(89.408875%,54.899597%,30.979919%);fill-opacity:1;" d="M 159.90625 289.085938 L 166.800781 301.203125 L 204.988281 301.203125 L 211.949219 289.085938 L 190.867188 283.328125 L 180.921875 283.328125 L 159.90625 289.085938 "/>
<path style=" stroke:none;fill-rule:evenodd;fill:rgb(92.549133%,69.799805%,49.409485%);fill-opacity:1;" d="M 168.457031 214.835938 L 146.3125 248.445312 L 146.3125 281.785156 L 159.042969 294.640625 L 185.894531 287.410156 L 212.746094 294.640625 L 225.476562 281.785156 L 225.476562 248.445312 L 203.398438 214.835938 L 195.109375 206.269531 L 176.746094 206.269531 L 168.457031 214.835938 "/>
<path style=" stroke:none;fill-rule:evenodd;fill:rgb(6.269836%,5.879211%,5.099487%);fill-opacity:1;" d="M 185.894531 250.386719 L 194.3125 253.734375 L 202.667969 257.015625 L 202.667969 270.203125 L 194.3125 273.550781 L 185.894531 276.832031 L 177.539062 273.550781 L 169.121094 270.203125 L 169.121094 257.015625 L 177.539062 253.734375 L 185.894531 250.386719 "/>
<path style=" stroke:none;fill-rule:evenodd;fill:rgb(6.269836%,5.879211%,5.099487%);fill-opacity:1;" d="M 241.121094 200.441406 L 204.855469 212.695312 L 210.359375 218.855469 L 240.0625 214.167969 Z M 130.730469 199.640625 L 166.996094 211.890625 L 161.429688 218.050781 L 131.726562 213.363281 L 130.730469 199.640625 "/>
<path style=" stroke:none;fill-rule:evenodd;fill:rgb(94.119263%,80.778503%,67.449951%);fill-opacity:1;" d="M 108.65625 127.535156 L 95.527344 139.316406 L 96.71875 155.71875 L 121.515625 168.375 L 114.089844 170.183594 L 95.261719 212.5625 L 95.261719 237.066406 L 99.171875 212.960938 L 117.605469 173.996094 L 132.058594 167.972656 L 101.230469 153.777344 L 100.035156 140.523438 L 108.65625 127.535156 "/>
<path style=" stroke:none;fill-rule:evenodd;fill:rgb(94.119263%,80.778503%,67.449951%);fill-opacity:1;" d="M 177.871094 208.609375 L 169.980469 215.4375 L 148.632812 249.25 L 148.632812 280.046875 L 159.90625 291.425781 L 177.472656 286.875 L 160.898438 287.476562 L 151.816406 278.972656 L 151.882812 249.785156 L 172.371094 217.046875 L 177.871094 208.609375 "/>
<path style=" stroke:none;fill-rule:evenodd;fill:rgb(94.119263%,80.778503%,67.449951%);fill-opacity:1;" d="M 102.222656 231.910156 L 102.222656 271.277344 L 108.917969 283.058594 L 105.472656 270.136719 L 102.222656 231.910156 "/>
<path style=" stroke:none;fill-rule:evenodd;fill:rgb(94.119263%,80.778503%,67.449951%);fill-opacity:1;" d="M 115.285156 263.777344 L 127.152344 303.210938 L 142.535156 316.667969 L 129.738281 301 L 115.285156 263.777344 "/>
</g>
</svg>
