<?xml version="1.0" encoding="UTF-8"?>
<svg xmlns="http://www.w3.org/2000/svg" xmlns:xlink="http://www.w3.org/1999/xlink" width="375pt" height="374.999991pt" viewBox="0 0 375 374.999991" version="1.2">
<defs>
<clipPath id="clip1">
  <path d="M 48.035156 26.679688 L 323.554688 26.679688 L 323.554688 221.410156 L 48.035156 221.410156 Z M 48.035156 26.679688 "/>
</clipPath>
<clipPath id="clip2">
  <path d="M 90.679688 123.925781 L 281.265625 123.925781 L 281.265625 331.085938 L 90.679688 331.085938 Z M 90.679688 123.925781 "/>
</clipPath>
</defs>
<g id="surface1">
<path style=" stroke:none;fill-rule:nonzero;fill:rgb(26.669312%,12.939453%,9.408569%);fill-opacity:1;" d="M 135.320312 134.460938 L 236.570312 134.460938 L 236.570312 155.152344 L 135.320312 155.152344 Z M 135.320312 134.460938 "/>
<g clip-path="url(#clip1)" clip-rule="nonzero">
<path style=" stroke:none;fill-rule:nonzero;fill:rgb(26.669312%,12.939453%,9.408569%);fill-opacity:1;" d="M 59.140625 87.921875 C 58.78125 89.121094 58.46875 90.335938 58.207031 91.5625 C 57.480469 94.941406 57.167969 98.316406 57.273438 101.59375 C 57.375 104.976562 57.953125 108.425781 58.996094 111.851562 C 60.914062 118.1875 64.449219 124.398438 69.503906 130.3125 C 73.824219 135.359375 78.984375 140.03125 85.269531 144.566406 C 90.648438 148.429688 96.519531 152.019531 103.214844 155.507812 C 109.207031 158.621094 115.429688 161.460938 122.238281 164.140625 C 124.441406 165.007812 126.855469 165.894531 129.609375 166.882812 L 131.5625 167.570312 L 132.324219 169.484375 C 133.746094 173.089844 136.007812 176.324219 138.855469 178.867188 L 169.453125 206.070312 C 174.109375 210.210938 179.953125 212.28125 185.792969 212.28125 C 191.632812 212.28125 197.472656 210.210938 202.136719 206.070312 L 232.730469 178.867188 C 235.582031 176.324219 237.84375 173.089844 239.257812 169.484375 L 240.027344 167.570312 L 241.992188 166.882812 C 244.726562 165.894531 247.144531 165.007812 249.367188 164.140625 C 256.167969 161.460938 262.382812 158.621094 268.378906 155.507812 C 275.066406 152.019531 280.945312 148.429688 286.332031 144.566406 C 292.605469 140.03125 297.757812 135.359375 302.082031 130.3125 C 307.136719 124.398438 310.675781 118.1875 312.605469 111.855469 C 313.644531 108.425781 314.214844 104.976562 314.3125 101.605469 C 314.433594 98.316406 314.117188 94.941406 313.390625 91.570312 L 313.390625 91.5625 C 313.113281 90.335938 312.800781 89.121094 312.445312 87.921875 C 312.503906 89.210938 312.484375 90.496094 312.425781 91.773438 C 312.152344 98.355469 310.285156 104.5625 307 109.726562 C 304.050781 114.449219 299.824219 118.722656 294.433594 122.433594 C 285.921875 128.261719 274.929688 132.679688 260.871094 135.890625 C 255.109375 137.195312 248.992188 138.238281 242.660156 138.988281 C 239.554688 139.363281 236.46875 139.65625 233.496094 139.875 L 232.4375 139.933594 C 232.238281 139.933594 232.042969 139.953125 231.828125 139.953125 L 230.410156 140.050781 L 229.191406 139.304688 C 225.335938 136.9375 220.914062 135.695312 216.390625 135.695312 L 155.199219 135.695312 C 150.6875 135.695312 146.257812 136.9375 142.394531 139.304688 L 141.179688 140.050781 L 139.753906 139.953125 C 139.550781 139.953125 139.351562 139.933594 139.148438 139.933594 C 138.796875 139.914062 138.445312 139.894531 138.09375 139.875 C 135.121094 139.65625 132.039062 139.363281 128.933594 138.988281 C 122.601562 138.238281 116.480469 137.195312 110.738281 135.890625 C 96.652344 132.679688 85.675781 128.261719 77.164062 122.4375 C 71.769531 118.722656 67.542969 114.449219 64.585938 109.726562 C 61.3125 104.566406 59.433594 98.359375 59.160156 91.777344 C 59.097656 90.503906 59.089844 89.210938 59.140625 87.921875 Z M 185.792969 221.410156 C 177.792969 221.410156 169.792969 218.570312 163.410156 212.894531 L 132.816406 185.6875 C 129.429688 182.671875 126.65625 178.945312 124.710938 174.804688 C 122.609375 174.058594 120.699219 173.328125 118.90625 172.636719 C 111.800781 169.820312 105.296875 166.882812 99.019531 163.609375 C 91.929688 159.902344 85.695312 156.097656 79.953125 151.957031 C 73.070312 147.011719 67.394531 141.867188 62.59375 136.246094 C 56.714844 129.367188 52.574219 122.054688 50.289062 114.507812 C 49.011719 110.308594 48.300781 106.058594 48.175781 101.882812 C 48.042969 97.867188 48.425781 93.746094 49.308594 89.640625 C 50.117188 85.863281 51.324219 82.160156 52.894531 78.636719 C 53.300781 77.660156 53.703125 76.792969 54.117188 75.988281 L 55.398438 73.464844 C 55.644531 73.042969 55.882812 72.617188 56.121094 72.195312 C 56.730469 71.105469 57.363281 69.980469 58.117188 68.855469 C 61.609375 63.339844 65.820312 58.011719 70.980469 52.5625 L 95.515625 26.6875 L 78.261719 57.917969 C 75.015625 63.796875 72.5 69.5 70.785156 74.871094 L 70.742188 74.996094 C 70.441406 75.851562 70.195312 76.785156 69.933594 77.777344 C 69.816406 78.230469 69.695312 78.683594 69.570312 79.128906 L 69.09375 81.367188 C 68.964844 81.90625 68.855469 82.511719 68.761719 83.21875 L 68.738281 83.363281 C 68.289062 86.039062 68.125 88.730469 68.25 91.363281 L 68.25 91.390625 C 68.460938 96.375 69.847656 101.03125 72.273438 104.847656 L 72.289062 104.871094 C 74.585938 108.53125 77.953125 111.910156 82.308594 114.910156 C 89.851562 120.082031 99.8125 124.035156 112.753906 127 C 118.179688 128.222656 123.984375 129.210938 130 129.9375 C 132.964844 130.292969 135.902344 130.570312 138.734375 130.765625 L 138.921875 130.765625 C 143.902344 128.027344 149.5 126.566406 155.199219 126.566406 L 216.390625 126.566406 C 222.09375 126.566406 227.695312 128.027344 232.671875 130.765625 L 232.847656 130.765625 C 235.679688 130.570312 238.628906 130.292969 241.597656 129.9375 C 247.597656 129.210938 253.417969 128.222656 258.84375 127 C 271.78125 124.035156 281.730469 120.082031 289.28125 114.90625 C 293.628906 111.910156 297.011719 108.53125 299.292969 104.871094 L 299.3125 104.847656 C 301.75 101.03125 303.125 96.375 303.34375 91.390625 L 303.34375 91.363281 C 303.460938 88.726562 303.304688 86.035156 302.851562 83.363281 L 302.832031 83.21875 C 302.734375 82.511719 302.632812 81.90625 302.496094 81.363281 L 302.476562 81.285156 L 302.023438 79.128906 C 301.886719 78.683594 301.769531 78.234375 301.652344 77.78125 C 301.394531 76.789062 301.160156 75.851562 300.84375 74.992188 L 300.804688 74.871094 C 299.09375 69.5 296.578125 63.796875 293.332031 57.917969 L 276.070312 26.683594 L 300.609375 52.5625 C 305.78125 58.011719 309.988281 63.339844 313.46875 68.855469 C 314.214844 69.980469 314.863281 71.105469 315.472656 72.199219 C 315.710938 72.621094 315.945312 73.042969 316.183594 73.464844 L 316.320312 73.703125 L 317.460938 75.984375 C 317.894531 76.789062 318.285156 77.660156 318.699219 78.632812 C 320.273438 82.15625 321.472656 85.859375 322.277344 89.648438 C 323.164062 93.746094 323.535156 97.871094 323.417969 101.894531 C 323.28125 106.058594 322.574219 110.308594 321.292969 114.511719 C 319.015625 122.054688 314.882812 129.367188 309.003906 136.246094 C 304.207031 141.867188 298.523438 146.992188 291.640625 151.957031 C 285.902344 156.097656 279.667969 159.902344 272.570312 163.609375 C 266.296875 166.882812 259.789062 169.820312 252.6875 172.617188 C 250.878906 173.328125 248.972656 174.058594 246.886719 174.804688 C 244.941406 178.945312 242.167969 182.671875 238.769531 185.6875 L 208.171875 212.894531 C 201.800781 218.570312 193.796875 221.410156 185.792969 221.410156 "/>
</g>
<g clip-path="url(#clip2)" clip-rule="nonzero">
<path style=" stroke:none;fill-rule:evenodd;fill:rgb(26.669312%,12.939453%,9.408569%);fill-opacity:1;" d="M 185.9375 331.085938 L 169.949219 315.003906 L 169.949219 329.679688 L 147.796875 310.25 L 141.960938 321.101562 L 123.585938 305.695312 L 116.554688 279.628906 L 107.402344 289.210938 L 98.644531 272.527344 L 98.84375 237.957031 L 90.753906 246.128906 L 90.753906 213.164062 L 109.722656 170.21875 L 112.375 167.535156 L 93.40625 158.828125 L 91.414062 138.992188 L 105.808594 123.917969 L 133.335938 125.324219 L 137.515625 142.144531 L 140.167969 139.464844 L 185.9375 133.835938 L 231.773438 139.464844 L 234.558594 142.34375 L 238.804688 125.324219 L 266.265625 123.917969 L 280.722656 138.992188 L 278.734375 158.828125 L 259.628906 167.601562 L 262.21875 170.21875 L 281.1875 213.164062 L 281.1875 246.128906 L 273.097656 237.957031 L 273.226562 272.527344 L 264.472656 289.210938 L 255.386719 279.628906 L 248.355469 305.695312 L 229.914062 321.101562 L 224.144531 310.25 L 201.921875 329.679688 L 201.921875 315.003906 L 185.9375 331.085938 "/>
</g>
<path style=" stroke:none;fill-rule:evenodd;fill:rgb(89.408875%,54.899597%,30.979919%);fill-opacity:1;" d="M 159.9375 289.210938 L 166.832031 301.339844 L 205.039062 301.339844 L 212.003906 289.210938 L 190.910156 283.449219 L 180.960938 283.449219 L 159.9375 289.210938 "/>
<path style=" stroke:none;fill-rule:evenodd;fill:rgb(92.549133%,69.799805%,49.409485%);fill-opacity:1;" d="M 168.492188 214.90625 L 146.335938 248.542969 L 146.335938 281.90625 L 159.070312 294.769531 L 185.9375 287.535156 L 212.800781 294.769531 L 225.535156 281.90625 L 225.535156 248.542969 L 203.449219 214.90625 L 195.15625 206.332031 L 176.78125 206.332031 L 168.492188 214.90625 "/>
<path style=" stroke:none;fill-rule:evenodd;fill:rgb(6.269836%,5.879211%,5.099487%);fill-opacity:1;" d="M 185.9375 250.484375 L 194.359375 253.835938 L 202.71875 257.117188 L 202.71875 270.316406 L 194.359375 273.664062 L 185.9375 276.949219 L 177.578125 273.664062 L 169.15625 270.316406 L 169.15625 257.117188 L 177.578125 253.835938 L 185.9375 250.484375 "/>
<path style=" stroke:none;fill-rule:evenodd;fill:rgb(6.269836%,5.879211%,5.099487%);fill-opacity:1;" d="M 241.191406 200.5 L 204.90625 212.761719 L 210.414062 218.925781 L 240.128906 214.234375 Z M 130.75 199.699219 L 167.03125 211.957031 L 161.460938 218.121094 L 131.746094 213.433594 L 130.75 199.699219 "/>
<path style=" stroke:none;fill-rule:evenodd;fill:rgb(94.119263%,80.778503%,67.449951%);fill-opacity:1;" d="M 108.660156 127.535156 L 95.527344 139.328125 L 96.722656 155.746094 L 121.527344 168.40625 L 114.097656 170.21875 L 95.261719 212.628906 L 95.261719 237.152344 L 99.175781 213.03125 L 117.617188 174.035156 L 132.074219 168.007812 L 101.234375 153.800781 L 100.039062 140.535156 L 108.660156 127.535156 "/>
<path style=" stroke:none;fill-rule:evenodd;fill:rgb(94.119263%,80.778503%,67.449951%);fill-opacity:1;" d="M 177.910156 208.675781 L 170.019531 215.507812 L 148.660156 249.34375 L 148.660156 280.167969 L 159.9375 291.554688 L 177.511719 287 L 160.929688 287.601562 L 151.84375 279.09375 L 151.910156 249.882812 L 172.40625 217.117188 L 177.910156 208.675781 "/>
<path style=" stroke:none;fill-rule:evenodd;fill:rgb(94.119263%,80.778503%,67.449951%);fill-opacity:1;" d="M 102.226562 231.992188 L 102.226562 271.386719 L 108.925781 283.179688 L 105.476562 270.25 L 102.226562 231.992188 "/>
<path style=" stroke:none;fill-rule:evenodd;fill:rgb(94.119263%,80.778503%,67.449951%);fill-opacity:1;" d="M 115.292969 263.882812 L 127.167969 303.347656 L 142.554688 316.816406 L 129.753906 301.136719 L 115.292969 263.882812 "/>
</g>
</svg>
